<svg width="176" height="32" viewBox="0 0 176 32" fill="none" xmlns="http://www.w3.org/2000/svg">
<g clip-path="url(#clip0_3843_531)">
<path d="M29.6614 11.8533L28.2614 6.02667C27.9681 4.82667 26.9281 4 25.7148 4H7.19476C5.99476 4 4.94143 4.84 4.66143 6.02667L3.26143 11.8533C2.94143 13.2133 3.23476 14.6 4.08809 15.6933C4.19476 15.84 4.34143 15.9467 4.46143 16.08V25.3333C4.46143 26.8 5.66143 28 7.12809 28H25.7948C27.2614 28 28.4614 26.8 28.4614 25.3333V16.08C28.5814 15.96 28.7281 15.84 28.8348 15.7067C29.6881 14.6133 29.9948 13.2133 29.6614 11.8533ZM25.6748 6.65333L27.0748 12.48C27.2081 13.04 27.0881 13.6 26.7414 14.04C26.5548 14.28 26.1548 14.6667 25.4881 14.6667C24.6748 14.6667 23.9681 14.0133 23.8748 13.1467L23.1014 6.66667L25.6748 6.65333ZM17.7948 6.66667H20.4081L21.1281 12.6933C21.1948 13.2133 21.0348 13.7333 20.6881 14.12C20.3948 14.4667 19.9681 14.6667 19.4214 14.6667C18.5281 14.6667 17.7948 13.88 17.7948 12.92V6.66667ZM11.7814 12.6933L12.5148 6.66667H15.1281V12.92C15.1281 13.88 14.3948 14.6667 13.4081 14.6667C12.9548 14.6667 12.5414 14.4667 12.2214 14.12C11.8881 13.7333 11.7281 13.2133 11.7814 12.6933ZM5.84809 12.48L7.19476 6.66667H9.82143L9.04809 13.1467C8.94143 14.0133 8.24809 14.6667 7.43476 14.6667C6.78143 14.6667 6.36809 14.28 6.19476 14.04C5.83476 13.6133 5.71476 13.04 5.84809 12.48ZM7.12809 25.3333V17.2933C7.23476 17.3067 7.32809 17.3333 7.43476 17.3333C8.59476 17.3333 9.64809 16.8533 10.4214 16.0667C11.2214 16.8667 12.2881 17.3333 13.5014 17.3333C14.6614 17.3333 15.7014 16.8533 16.4748 16.0933C17.2614 16.8533 18.3281 17.3333 19.5281 17.3333C20.6481 17.3333 21.7148 16.8667 22.5148 16.0667C23.2881 16.8533 24.3414 17.3333 25.5014 17.3333C25.6081 17.3333 25.7014 17.3067 25.8081 17.2933V25.3333H7.12809Z" fill="#32323B"/>
</g>
<path d="M42.2914 23V8.54H45.3114L49.3814 20.04L53.5114 8.54H56.5114V23H54.3214V11.48L50.3214 23H48.4514L44.4714 11.57V23H42.2914ZM60.8446 18.33C60.8446 18.95 60.9446 19.5067 61.1446 20C61.3512 20.4867 61.6612 20.8733 62.0746 21.16C62.4879 21.44 63.0012 21.58 63.6146 21.58C64.2279 21.58 64.7579 21.44 65.2046 21.16C65.6579 20.88 65.9546 20.4633 66.0946 19.91H68.0746C67.9546 20.6167 67.6712 21.2167 67.2246 21.71C66.7846 22.2033 66.2512 22.5767 65.6246 22.83C64.9979 23.0767 64.3412 23.2 63.6546 23.2C62.6746 23.2 61.8112 22.99 61.0646 22.57C60.3179 22.1433 59.7346 21.5367 59.3146 20.75C58.9012 19.9633 58.6946 19.0267 58.6946 17.94C58.6946 16.8667 58.8846 15.92 59.2646 15.1C59.6446 14.2733 60.1946 13.6267 60.9146 13.16C61.6346 12.6933 62.5012 12.46 63.5146 12.46C64.5146 12.46 65.3546 12.6733 66.0346 13.1C66.7212 13.5267 67.2412 14.1267 67.5946 14.9C67.9479 15.6667 68.1246 16.5733 68.1246 17.62V18.33H60.8446ZM60.8446 16.94H66.0846C66.0846 16.4 65.9912 15.91 65.8046 15.47C65.6179 15.0233 65.3312 14.6733 64.9446 14.42C64.5646 14.16 64.0846 14.03 63.5046 14.03C62.9112 14.03 62.4179 14.1733 62.0246 14.46C61.6312 14.7467 61.3346 15.1133 61.1346 15.56C60.9412 16.0067 60.8446 16.4667 60.8446 16.94ZM73.7752 23.2C73.2552 23.1933 72.7585 23.1167 72.2852 22.97C71.8119 22.8233 71.3885 22.6033 71.0152 22.31C70.6485 22.0167 70.3552 21.6533 70.1352 21.22C69.9219 20.7867 69.8152 20.2833 69.8152 19.71V12.66H71.9652V19.48C71.9652 20.1 72.1585 20.6033 72.5452 20.99C72.9319 21.3767 73.5152 21.57 74.2952 21.57C75.0019 21.57 75.5685 21.3867 75.9952 21.02C76.4219 20.6467 76.6352 20.1033 76.6352 19.39V12.66H78.7652V23H77.1052L76.8652 21C76.7452 21.54 76.5285 21.9733 76.2152 22.3C75.9085 22.62 75.5419 22.8533 75.1152 23C74.6952 23.14 74.2485 23.2067 73.7752 23.2ZM84.926 23.2C84.206 23.2 83.5293 23.0867 82.896 22.86C82.2693 22.6333 81.7427 22.2767 81.316 21.79C80.896 21.3033 80.6327 20.68 80.526 19.92H82.436C82.5227 20.3133 82.686 20.64 82.926 20.9C83.1727 21.1533 83.466 21.3433 83.806 21.47C84.1527 21.59 84.5227 21.65 84.916 21.65C85.5693 21.65 86.096 21.5333 86.496 21.3C86.9027 21.06 87.106 20.6933 87.106 20.2C87.106 19.8467 86.996 19.5633 86.776 19.35C86.5627 19.1367 86.2227 18.98 85.756 18.88L83.696 18.39C82.8427 18.19 82.1593 17.8733 81.646 17.44C81.1327 17 80.8727 16.3867 80.866 15.6C80.866 14.9933 81.016 14.4533 81.316 13.98C81.6227 13.5067 82.076 13.1367 82.676 12.87C83.276 12.5967 84.0227 12.46 84.916 12.46C86.0827 12.46 87.0193 12.72 87.726 13.24C88.4327 13.76 88.7993 14.5133 88.826 15.5H86.976C86.9093 15.0267 86.6927 14.6567 86.326 14.39C85.966 14.1167 85.4893 13.98 84.896 13.98C84.2827 13.98 83.7793 14.1033 83.386 14.35C82.9927 14.59 82.796 14.96 82.796 15.46C82.796 15.8 82.9393 16.07 83.226 16.27C83.5127 16.4633 83.9427 16.6233 84.516 16.75L86.476 17.24C86.9827 17.3733 87.3993 17.55 87.726 17.77C88.0527 17.9833 88.3093 18.22 88.496 18.48C88.6827 18.74 88.8127 19.01 88.886 19.29C88.966 19.57 89.006 19.8333 89.006 20.08C89.006 20.7333 88.8393 21.2933 88.506 21.76C88.1793 22.22 87.7093 22.5767 87.096 22.83C86.4893 23.0767 85.766 23.2 84.926 23.2ZM97.9982 23.2C97.3315 23.2 96.7382 23.08 96.2182 22.84C95.7049 22.6 95.3015 22.2533 95.0082 21.8C94.7149 21.3467 94.5682 20.8 94.5682 20.16C94.5682 19.0133 94.9749 18.1567 95.7882 17.59C96.6015 17.0233 97.8982 16.7233 99.6782 16.69L101.378 16.64V15.89C101.378 15.2967 101.202 14.83 100.848 14.49C100.495 14.15 99.9515 13.9833 99.2182 13.99C98.6649 13.99 98.1715 14.1167 97.7382 14.37C97.3115 14.6233 97.0315 15.04 96.8982 15.62H95.0382C95.0782 14.9333 95.2749 14.3567 95.6282 13.89C95.9882 13.4167 96.4815 13.06 97.1082 12.82C97.7349 12.58 98.4715 12.46 99.3182 12.46C100.258 12.46 101.032 12.59 101.638 12.85C102.245 13.1033 102.695 13.4767 102.988 13.97C103.288 14.4633 103.438 15.0633 103.438 15.77V23H101.628L101.458 21.1C101.072 21.8933 100.582 22.4433 99.9882 22.75C99.4015 23.05 98.7382 23.2 97.9982 23.2ZM98.6682 21.71C98.9949 21.71 99.3182 21.6533 99.6382 21.54C99.9582 21.42 100.248 21.26 100.508 21.06C100.768 20.8533 100.975 20.6233 101.128 20.37C101.288 20.1167 101.372 19.8567 101.378 19.59V17.88L99.9782 17.91C99.2649 17.9167 98.6582 17.99 98.1582 18.13C97.6649 18.27 97.2849 18.4867 97.0182 18.78C96.7582 19.0733 96.6282 19.4633 96.6282 19.95C96.6282 20.5033 96.8215 20.9367 97.2082 21.25C97.5949 21.5567 98.0815 21.71 98.6682 21.71ZM106.064 23V12.66H108.154V14.15C108.32 13.87 108.544 13.6067 108.824 13.36C109.11 13.1133 109.46 12.9133 109.874 12.76C110.294 12.6067 110.777 12.53 111.324 12.53C111.97 12.53 112.567 12.66 113.114 12.92C113.667 13.1733 114.11 13.5733 114.444 14.12C114.777 14.66 114.944 15.36 114.944 16.22V23H112.804V16.45C112.804 15.71 112.604 15.16 112.204 14.8C111.81 14.44 111.3 14.26 110.674 14.26C110.254 14.26 109.854 14.33 109.474 14.47C109.094 14.61 108.787 14.8233 108.554 15.11C108.32 15.39 108.204 15.7433 108.204 16.17V23H106.064ZM120.946 23.2C120.426 23.1933 119.93 23.1167 119.456 22.97C118.983 22.8233 118.56 22.6033 118.186 22.31C117.82 22.0167 117.526 21.6533 117.306 21.22C117.093 20.7867 116.986 20.2833 116.986 19.71V12.66H119.136V19.48C119.136 20.1 119.33 20.6033 119.716 20.99C120.103 21.3767 120.686 21.57 121.466 21.57C122.173 21.57 122.74 21.3867 123.166 21.02C123.593 20.6467 123.806 20.1033 123.806 19.39V12.66H125.936V23H124.276L124.036 21C123.916 21.54 123.7 21.9733 123.386 22.3C123.08 22.62 122.713 22.8533 122.286 23C121.866 23.14 121.42 23.2067 120.946 23.2ZM122.726 8.54H125.076L122.276 11.45H120.666L122.726 8.54ZM128.424 23V12.66H130.514V14.15C130.681 13.87 130.904 13.6067 131.184 13.36C131.471 13.1133 131.821 12.9133 132.234 12.76C132.654 12.6067 133.138 12.53 133.684 12.53C134.331 12.53 134.928 12.66 135.474 12.92C136.028 13.1733 136.471 13.5733 136.804 14.12C137.138 14.66 137.304 15.36 137.304 16.22V23H135.164V16.45C135.164 15.71 134.964 15.16 134.564 14.8C134.171 14.44 133.661 14.26 133.034 14.26C132.614 14.26 132.214 14.33 131.834 14.47C131.454 14.61 131.148 14.8233 130.914 15.11C130.681 15.39 130.564 15.7433 130.564 16.17V23H128.424ZM143.873 12.46C144.647 12.46 145.333 12.6133 145.933 12.92C146.54 13.22 147.03 13.64 147.403 14.18C147.777 14.72 148.003 15.35 148.083 16.07H146.233C146.173 15.73 146.043 15.4133 145.843 15.12C145.65 14.8267 145.387 14.5933 145.053 14.42C144.727 14.24 144.337 14.15 143.883 14.15C143.057 14.15 142.383 14.4533 141.863 15.06C141.343 15.6667 141.083 16.5967 141.083 17.85C141.083 18.9967 141.323 19.91 141.803 20.59C142.29 21.27 142.997 21.61 143.923 21.61C144.37 21.61 144.757 21.5167 145.083 21.33C145.417 21.1433 145.68 20.9033 145.873 20.61C146.067 20.3167 146.19 20.0133 146.243 19.7H148.063C147.99 20.3933 147.763 21.0033 147.383 21.53C147.01 22.0567 146.52 22.4667 145.913 22.76C145.313 23.0533 144.633 23.2 143.873 23.2C142.933 23.2 142.1 22.9967 141.373 22.59C140.647 22.1767 140.077 21.5733 139.663 20.78C139.257 19.98 139.053 19.01 139.053 17.87C139.053 16.7967 139.243 15.8533 139.623 15.04C140.003 14.2267 140.553 13.5933 141.273 13.14C142 12.6867 142.867 12.46 143.873 12.46ZM152.322 12.66V23H150.262V12.66H152.322ZM152.362 8.55V10.66H150.212V8.55H152.362ZM159.212 23.2C158.246 23.2 157.399 22.9933 156.672 22.58C155.952 22.16 155.392 21.5533 154.992 20.76C154.599 19.9667 154.402 19.0067 154.402 17.88C154.402 16.7933 154.589 15.8433 154.962 15.03C155.342 14.2167 155.892 13.5867 156.612 13.14C157.332 12.6867 158.202 12.46 159.222 12.46C160.196 12.46 161.039 12.6733 161.752 13.1C162.466 13.52 163.019 14.1367 163.412 14.95C163.806 15.7567 164.002 16.7333 164.002 17.88C164.002 18.9267 163.816 19.85 163.442 20.65C163.076 21.45 162.536 22.0767 161.822 22.53C161.116 22.9767 160.246 23.2 159.212 23.2ZM159.222 21.55C159.809 21.55 160.299 21.3967 160.692 21.09C161.092 20.7767 161.392 20.34 161.592 19.78C161.792 19.2133 161.892 18.56 161.892 17.82C161.892 17.1333 161.802 16.51 161.622 15.95C161.449 15.3833 161.166 14.9333 160.772 14.6C160.379 14.2667 159.862 14.1 159.222 14.1C158.622 14.1 158.122 14.2533 157.722 14.56C157.322 14.86 157.019 15.29 156.812 15.85C156.612 16.4033 156.512 17.06 156.512 17.82C156.512 18.4933 156.602 19.1133 156.782 19.68C156.962 20.2467 157.252 20.7 157.652 21.04C158.052 21.38 158.576 21.55 159.222 21.55ZM169.65 23.2C168.93 23.2 168.254 23.0867 167.62 22.86C166.994 22.6333 166.467 22.2767 166.04 21.79C165.62 21.3033 165.357 20.68 165.25 19.92H167.16C167.247 20.3133 167.41 20.64 167.65 20.9C167.897 21.1533 168.19 21.3433 168.53 21.47C168.877 21.59 169.247 21.65 169.64 21.65C170.294 21.65 170.82 21.5333 171.22 21.3C171.627 21.06 171.83 20.6933 171.83 20.2C171.83 19.8467 171.72 19.5633 171.5 19.35C171.287 19.1367 170.947 18.98 170.48 18.88L168.42 18.39C167.567 18.19 166.884 17.8733 166.37 17.44C165.857 17 165.597 16.3867 165.59 15.6C165.59 14.9933 165.74 14.4533 166.04 13.98C166.347 13.5067 166.8 13.1367 167.4 12.87C168 12.5967 168.747 12.46 169.64 12.46C170.807 12.46 171.744 12.72 172.45 13.24C173.157 13.76 173.524 14.5133 173.55 15.5H171.7C171.634 15.0267 171.417 14.6567 171.05 14.39C170.69 14.1167 170.214 13.98 169.62 13.98C169.007 13.98 168.504 14.1033 168.11 14.35C167.717 14.59 167.52 14.96 167.52 15.46C167.52 15.8 167.664 16.07 167.95 16.27C168.237 16.4633 168.667 16.6233 169.24 16.75L171.2 17.24C171.707 17.3733 172.124 17.55 172.45 17.77C172.777 17.9833 173.034 18.22 173.22 18.48C173.407 18.74 173.537 19.01 173.61 19.29C173.69 19.57 173.73 19.8333 173.73 20.08C173.73 20.7333 173.564 21.2933 173.23 21.76C172.904 22.22 172.434 22.5767 171.82 22.83C171.214 23.0767 170.49 23.2 169.65 23.2Z" fill="#383842"/>
<defs>
<clipPath id="clip0_3843_531">
<rect width="32" height="32" fill="white" transform="translate(0.461426)"/>
</clipPath>
</defs>
</svg>
