<svg width="162" height="32" viewBox="0 0 162 32" fill="none" xmlns="http://www.w3.org/2000/svg">
<g clip-path="url(#clip0_3843_526)">
<path d="M9.79476 24.0001C8.32809 24.0001 7.14143 25.2001 7.14143 26.6667C7.14143 28.1334 8.32809 29.3334 9.79476 29.3334C11.2614 29.3334 12.4614 28.1334 12.4614 26.6667C12.4614 25.2001 11.2614 24.0001 9.79476 24.0001ZM23.1281 24.0001C21.6614 24.0001 20.4748 25.2001 20.4748 26.6667C20.4748 28.1334 21.6614 29.3334 23.1281 29.3334C24.5948 29.3334 25.7948 28.1334 25.7948 26.6667C25.7948 25.2001 24.5948 24.0001 23.1281 24.0001ZM21.1948 17.3334C22.1948 17.3334 23.0748 16.7867 23.5281 15.9601L28.3014 7.30675C28.7948 6.42675 28.1548 5.33341 27.1414 5.33341H7.40809L6.15476 2.66675H1.79476V5.33341H4.46143L9.26143 15.4534L7.46143 18.7067C6.48809 20.4934 7.76809 22.6667 9.79476 22.6667H25.7948V20.0001H9.79476L11.2614 17.3334H21.1948ZM8.67476 8.00008H24.8748L21.1948 14.6667H11.8348L8.67476 8.00008Z" fill="#32323B"/>
</g>
<path d="M42.2914 23V8.54H45.3114L49.3814 20.04L53.5114 8.54H56.5114V23H54.3214V11.48L50.3214 23H48.4514L44.4714 11.57V23H42.2914ZM60.8446 18.33C60.8446 18.95 60.9446 19.5067 61.1446 20C61.3512 20.4867 61.6612 20.8733 62.0746 21.16C62.4879 21.44 63.0012 21.58 63.6146 21.58C64.2279 21.58 64.7579 21.44 65.2046 21.16C65.6579 20.88 65.9546 20.4633 66.0946 19.91H68.0746C67.9546 20.6167 67.6712 21.2167 67.2246 21.71C66.7846 22.2033 66.2512 22.5767 65.6246 22.83C64.9979 23.0767 64.3412 23.2 63.6546 23.2C62.6746 23.2 61.8112 22.99 61.0646 22.57C60.3179 22.1433 59.7346 21.5367 59.3146 20.75C58.9012 19.9633 58.6946 19.0267 58.6946 17.94C58.6946 16.8667 58.8846 15.92 59.2646 15.1C59.6446 14.2733 60.1946 13.6267 60.9146 13.16C61.6346 12.6933 62.5012 12.46 63.5146 12.46C64.5146 12.46 65.3546 12.6733 66.0346 13.1C66.7212 13.5267 67.2412 14.1267 67.5946 14.9C67.9479 15.6667 68.1246 16.5733 68.1246 17.62V18.33H60.8446ZM60.8446 16.94H66.0846C66.0846 16.4 65.9912 15.91 65.8046 15.47C65.6179 15.0233 65.3312 14.6733 64.9446 14.42C64.5646 14.16 64.0846 14.03 63.5046 14.03C62.9112 14.03 62.4179 14.1733 62.0246 14.46C61.6312 14.7467 61.3346 15.1133 61.1346 15.56C60.9412 16.0067 60.8446 16.4667 60.8446 16.94ZM73.7752 23.2C73.2552 23.1933 72.7585 23.1167 72.2852 22.97C71.8119 22.8233 71.3885 22.6033 71.0152 22.31C70.6485 22.0167 70.3552 21.6533 70.1352 21.22C69.9219 20.7867 69.8152 20.2833 69.8152 19.71V12.66H71.9652V19.48C71.9652 20.1 72.1585 20.6033 72.5452 20.99C72.9319 21.3767 73.5152 21.57 74.2952 21.57C75.0019 21.57 75.5685 21.3867 75.9952 21.02C76.4219 20.6467 76.6352 20.1033 76.6352 19.39V12.66H78.7652V23H77.1052L76.8652 21C76.7452 21.54 76.5285 21.9733 76.2152 22.3C75.9085 22.62 75.5419 22.8533 75.1152 23C74.6952 23.14 74.2485 23.2067 73.7752 23.2ZM89.2607 12.46C90.034 12.46 90.7207 12.6133 91.3207 12.92C91.9274 13.22 92.4174 13.64 92.7907 14.18C93.164 14.72 93.3907 15.35 93.4707 16.07H91.6207C91.5607 15.73 91.4307 15.4133 91.2307 15.12C91.0374 14.8267 90.774 14.5933 90.4407 14.42C90.114 14.24 89.724 14.15 89.2707 14.15C88.444 14.15 87.7707 14.4533 87.2507 15.06C86.7307 15.6667 86.4707 16.5967 86.4707 17.85C86.4707 18.9967 86.7107 19.91 87.1907 20.59C87.6774 21.27 88.384 21.61 89.3107 21.61C89.7574 21.61 90.144 21.5167 90.4707 21.33C90.804 21.1433 91.0674 20.9033 91.2607 20.61C91.454 20.3167 91.5774 20.0133 91.6307 19.7H93.4507C93.3774 20.3933 93.1507 21.0033 92.7707 21.53C92.3974 22.0567 91.9074 22.4667 91.3007 22.76C90.7007 23.0533 90.0207 23.2 89.2607 23.2C88.3207 23.2 87.4874 22.9967 86.7607 22.59C86.034 22.1767 85.464 21.5733 85.0507 20.78C84.644 19.98 84.4407 19.01 84.4407 17.87C84.4407 16.7967 84.6307 15.8533 85.0107 15.04C85.3907 14.2267 85.9407 13.5933 86.6607 13.14C87.3874 12.6867 88.254 12.46 89.2607 12.46ZM98.2326 23.2C97.5659 23.2 96.9726 23.08 96.4526 22.84C95.9393 22.6 95.5359 22.2533 95.2426 21.8C94.9493 21.3467 94.8026 20.8 94.8026 20.16C94.8026 19.0133 95.2093 18.1567 96.0226 17.59C96.8359 17.0233 98.1326 16.7233 99.9126 16.69L101.613 16.64V15.89C101.613 15.2967 101.436 14.83 101.083 14.49C100.729 14.15 100.186 13.9833 99.4526 13.99C98.8993 13.99 98.4059 14.1167 97.9726 14.37C97.5459 14.6233 97.2659 15.04 97.1326 15.62H95.2726C95.3126 14.9333 95.5093 14.3567 95.8626 13.89C96.2226 13.4167 96.7159 13.06 97.3426 12.82C97.9693 12.58 98.7059 12.46 99.5526 12.46C100.493 12.46 101.266 12.59 101.873 12.85C102.479 13.1033 102.929 13.4767 103.223 13.97C103.523 14.4633 103.673 15.0633 103.673 15.77V23H101.863L101.693 21.1C101.306 21.8933 100.816 22.4433 100.223 22.75C99.6359 23.05 98.9726 23.2 98.2326 23.2ZM98.9026 21.71C99.2293 21.71 99.5526 21.6533 99.8726 21.54C100.193 21.42 100.483 21.26 100.743 21.06C101.003 20.8533 101.209 20.6233 101.363 20.37C101.523 20.1167 101.606 19.8567 101.613 19.59V17.88L100.213 17.91C99.4993 17.9167 98.8926 17.99 98.3926 18.13C97.8993 18.27 97.5193 18.4867 97.2526 18.78C96.9926 19.0733 96.8626 19.4633 96.8626 19.95C96.8626 20.5033 97.0559 20.9367 97.4426 21.25C97.8293 21.5567 98.3159 21.71 98.9026 21.71ZM106.298 23V12.66H108.348V14.78C108.521 14.2733 108.761 13.85 109.068 13.51C109.381 13.1633 109.745 12.9033 110.158 12.73C110.571 12.55 111.008 12.46 111.468 12.46C111.608 12.46 111.741 12.47 111.868 12.49C111.995 12.5033 112.095 12.53 112.168 12.57V14.63C112.081 14.59 111.968 14.5633 111.828 14.55C111.695 14.5367 111.578 14.5267 111.478 14.52C111.025 14.4867 110.611 14.51 110.238 14.59C109.865 14.67 109.541 14.8033 109.268 14.99C109.001 15.1767 108.795 15.42 108.648 15.72C108.508 16.02 108.438 16.3733 108.438 16.78V23H106.298ZM113.767 23V12.66H115.817V14.78C115.991 14.2733 116.231 13.85 116.537 13.51C116.851 13.1633 117.214 12.9033 117.627 12.73C118.041 12.55 118.477 12.46 118.937 12.46C119.077 12.46 119.211 12.47 119.337 12.49C119.464 12.5033 119.564 12.53 119.637 12.57V14.63C119.551 14.59 119.437 14.5633 119.297 14.55C119.164 14.5367 119.047 14.5267 118.947 14.52C118.494 14.4867 118.081 14.51 117.707 14.59C117.334 14.67 117.011 14.8033 116.737 14.99C116.471 15.1767 116.264 15.42 116.117 15.72C115.977 16.02 115.907 16.3733 115.907 16.78V23H113.767ZM123.497 12.66V23H121.437V12.66H123.497ZM123.537 8.55V10.66H121.387V8.55H123.537ZM126.304 23V12.66H128.394V14.15C128.561 13.87 128.784 13.6067 129.064 13.36C129.351 13.1133 129.701 12.9133 130.114 12.76C130.534 12.6067 131.017 12.53 131.564 12.53C132.211 12.53 132.807 12.66 133.354 12.92C133.907 13.1733 134.351 13.5733 134.684 14.12C135.017 14.66 135.184 15.36 135.184 16.22V23H133.044V16.45C133.044 15.71 132.844 15.16 132.444 14.8C132.051 14.44 131.541 14.26 130.914 14.26C130.494 14.26 130.094 14.33 129.714 14.47C129.334 14.61 129.027 14.8233 128.794 15.11C128.561 15.39 128.444 15.7433 128.444 16.17V23H126.304ZM137.543 23V8.14H139.653V14.17C139.819 13.8967 140.043 13.6367 140.323 13.39C140.609 13.1433 140.956 12.9433 141.363 12.79C141.776 12.63 142.256 12.55 142.803 12.55C143.476 12.55 144.083 12.6767 144.623 12.93C145.169 13.1767 145.603 13.5367 145.923 14.01C146.249 14.4767 146.413 15.0333 146.413 15.68V23H144.273V16.07C144.273 15.49 144.073 15.0433 143.673 14.73C143.273 14.4167 142.759 14.26 142.133 14.26C141.713 14.26 141.313 14.3333 140.933 14.48C140.559 14.62 140.256 14.8333 140.023 15.12C139.796 15.4 139.683 15.7533 139.683 16.18V23H137.543ZM152.982 23.2C152.015 23.2 151.168 22.9933 150.442 22.58C149.722 22.16 149.162 21.5533 148.762 20.76C148.368 19.9667 148.172 19.0067 148.172 17.88C148.172 16.7933 148.358 15.8433 148.732 15.03C149.112 14.2167 149.662 13.5867 150.382 13.14C151.102 12.6867 151.972 12.46 152.992 12.46C153.965 12.46 154.808 12.6733 155.522 13.1C156.235 13.52 156.788 14.1367 157.182 14.95C157.575 15.7567 157.772 16.7333 157.772 17.88C157.772 18.9267 157.585 19.85 157.212 20.65C156.845 21.45 156.305 22.0767 155.592 22.53C154.885 22.9767 154.015 23.2 152.982 23.2ZM152.992 21.55C153.578 21.55 154.068 21.3967 154.462 21.09C154.862 20.7767 155.162 20.34 155.362 19.78C155.562 19.2133 155.662 18.56 155.662 17.82C155.662 17.1333 155.572 16.51 155.392 15.95C155.218 15.3833 154.935 14.9333 154.542 14.6C154.148 14.2667 153.632 14.1 152.992 14.1C152.392 14.1 151.892 14.2533 151.492 14.56C151.092 14.86 150.788 15.29 150.582 15.85C150.382 16.4033 150.282 17.06 150.282 17.82C150.282 18.4933 150.372 19.1133 150.552 19.68C150.732 20.2467 151.022 20.7 151.422 21.04C151.822 21.38 152.345 21.55 152.992 21.55Z" fill="#383842"/>
<defs>
<clipPath id="clip0_3843_526">
<rect width="32" height="32" fill="white" transform="translate(0.461426)"/>
</clipPath>
</defs>
</svg>
