<svg width="118" height="32" viewBox="0 0 118 32" fill="none" xmlns="http://www.w3.org/2000/svg">
<g clip-path="url(#clip0_4082_464)">
<path d="M16.4614 2.6665C9.10145 2.6665 3.12811 8.63984 3.12811 15.9998C3.12811 23.3598 9.10145 29.3332 16.4614 29.3332C23.8214 29.3332 29.7948 23.3598 29.7948 15.9998C29.7948 8.63984 23.8214 2.6665 16.4614 2.6665ZM9.88811 24.3732C10.4614 23.1732 13.9548 21.9998 16.4614 21.9998C18.9681 21.9998 22.4748 23.1732 23.0348 24.3732C21.2214 25.8132 18.9414 26.6665 16.4614 26.6665C13.9814 26.6665 11.7014 25.8132 9.88811 24.3732ZM24.9414 22.4398C23.0348 20.1198 18.4081 19.3332 16.4614 19.3332C14.5148 19.3332 9.88811 20.1198 7.98145 22.4398C6.62145 20.6532 5.79478 18.4265 5.79478 15.9998C5.79478 10.1198 10.5814 5.33317 16.4614 5.33317C22.3414 5.33317 27.1281 10.1198 27.1281 15.9998C27.1281 18.4265 26.3014 20.6532 24.9414 22.4398ZM16.4614 7.99984C13.8748 7.99984 11.7948 10.0798 11.7948 12.6665C11.7948 15.2532 13.8748 17.3332 16.4614 17.3332C19.0481 17.3332 21.1281 15.2532 21.1281 12.6665C21.1281 10.0798 19.0481 7.99984 16.4614 7.99984ZM16.4614 14.6665C15.3548 14.6665 14.4614 13.7732 14.4614 12.6665C14.4614 11.5598 15.3548 10.6665 16.4614 10.6665C17.5681 10.6665 18.4614 11.5598 18.4614 12.6665C18.4614 13.7732 17.5681 14.6665 16.4614 14.6665Z" fill="#32323B"/>
</g>
<path d="M43.3014 8.54H45.4714V21.12H52.1514V23H43.2914L43.3014 8.54ZM58.0574 23.2C57.0907 23.2 56.244 22.9933 55.5174 22.58C54.7974 22.16 54.2374 21.5533 53.8374 20.76C53.444 19.9667 53.2474 19.0067 53.2474 17.88C53.2474 16.7933 53.434 15.8433 53.8074 15.03C54.1874 14.2167 54.7374 13.5867 55.4574 13.14C56.1774 12.6867 57.0474 12.46 58.0674 12.46C59.0407 12.46 59.884 12.6733 60.5974 13.1C61.3107 13.52 61.864 14.1367 62.2574 14.95C62.6507 15.7567 62.8474 16.7333 62.8474 17.88C62.8474 18.9267 62.6607 19.85 62.2874 20.65C61.9207 21.45 61.3807 22.0767 60.6674 22.53C59.9607 22.9767 59.0907 23.2 58.0574 23.2ZM58.0674 21.55C58.654 21.55 59.144 21.3967 59.5374 21.09C59.9374 20.7767 60.2374 20.34 60.4374 19.78C60.6374 19.2133 60.7374 18.56 60.7374 17.82C60.7374 17.1333 60.6474 16.51 60.4674 15.95C60.294 15.3833 60.0107 14.9333 59.6174 14.6C59.224 14.2667 58.7074 14.1 58.0674 14.1C57.4674 14.1 56.9674 14.2533 56.5674 14.56C56.1674 14.86 55.864 15.29 55.6574 15.85C55.4574 16.4033 55.3574 17.06 55.3574 17.82C55.3574 18.4933 55.4474 19.1133 55.6274 19.68C55.8074 20.2467 56.0974 20.7 56.4974 21.04C56.8974 21.38 57.4207 21.55 58.0674 21.55ZM67.2143 23.32C67.2143 24.3267 66.9876 25.0767 66.5343 25.57C66.0809 26.07 65.3009 26.32 64.1943 26.32C63.6409 26.32 63.2876 26.2767 63.1343 26.19C62.9743 26.11 62.8943 26.07 62.8943 26.07V24.64L63.8543 24.58C64.3009 24.54 64.6143 24.42 64.7943 24.22C64.9809 24.02 65.0743 23.7 65.0743 23.26V12.66H67.2143V23.32ZM67.2543 8.55V10.66H65.0143V8.55H67.2543ZM72.6727 23.2C72.006 23.2 71.4127 23.08 70.8927 22.84C70.3794 22.6 69.976 22.2533 69.6827 21.8C69.3894 21.3467 69.2427 20.8 69.2427 20.16C69.2427 19.0133 69.6494 18.1567 70.4627 17.59C71.276 17.0233 72.5727 16.7233 74.3527 16.69L76.0527 16.64V15.89C76.0527 15.2967 75.876 14.83 75.5227 14.49C75.1694 14.15 74.626 13.9833 73.8927 13.99C73.3394 13.99 72.846 14.1167 72.4127 14.37C71.986 14.6233 71.706 15.04 71.5727 15.62H69.7127C69.7527 14.9333 69.9494 14.3567 70.3027 13.89C70.6627 13.4167 71.156 13.06 71.7827 12.82C72.4094 12.58 73.146 12.46 73.9927 12.46C74.9327 12.46 75.706 12.59 76.3127 12.85C76.9194 13.1033 77.3694 13.4767 77.6627 13.97C77.9627 14.4633 78.1127 15.0633 78.1127 15.77V23H76.3027L76.1327 21.1C75.746 21.8933 75.256 22.4433 74.6627 22.75C74.076 23.05 73.4127 23.2 72.6727 23.2ZM73.3427 21.71C73.6694 21.71 73.9927 21.6533 74.3127 21.54C74.6327 21.42 74.9227 21.26 75.1827 21.06C75.4427 20.8533 75.6494 20.6233 75.8027 20.37C75.9627 20.1167 76.046 19.8567 76.0527 19.59V17.88L74.6527 17.91C73.9394 17.9167 73.3327 17.99 72.8327 18.13C72.3394 18.27 71.9594 18.4867 71.6927 18.78C71.4327 19.0733 71.3027 19.4633 71.3027 19.95C71.3027 20.5033 71.496 20.9367 71.8827 21.25C72.2694 21.5567 72.756 21.71 73.3427 21.71ZM84.1677 23L89.3877 8.54H91.7477L96.9577 23H94.7977L93.4377 19.21H87.7277L86.3377 23H84.1677ZM88.2377 17.27H92.8877L90.5777 10.64L88.2377 17.27ZM103.929 8.34C104.969 8.34 105.893 8.55333 106.699 8.98C107.506 9.40667 108.153 9.98 108.639 10.7C109.133 11.42 109.426 12.2167 109.519 13.09H107.239C107.139 12.5433 106.946 12.05 106.659 11.61C106.379 11.1633 106.006 10.8133 105.539 10.56C105.073 10.3 104.519 10.17 103.879 10.17C103.059 10.17 102.363 10.3633 101.789 10.75C101.216 11.1367 100.779 11.74 100.479 12.56C100.186 13.38 100.039 14.4367 100.039 15.73C100.039 17.6833 100.369 19.1133 101.029 20.02C101.689 20.92 102.639 21.37 103.879 21.37C104.519 21.37 105.073 21.2333 105.539 20.96C106.006 20.68 106.379 20.31 106.659 19.85C106.946 19.3833 107.139 18.8767 107.239 18.33H109.519C109.439 18.9633 109.273 19.5733 109.019 20.16C108.766 20.74 108.413 21.26 107.959 21.72C107.513 22.18 106.956 22.5433 106.289 22.81C105.623 23.07 104.836 23.2 103.929 23.2C102.623 23.2 101.503 22.9 100.569 22.3C99.636 21.6933 98.9193 20.8333 98.4193 19.72C97.926 18.6 97.6793 17.26 97.6793 15.7C97.6793 14.1467 97.926 12.8233 98.4193 11.73C98.9127 10.63 99.626 9.79 100.559 9.21C101.493 8.63 102.616 8.34 103.929 8.34Z" fill="#383842"/>
<defs>
<clipPath id="clip0_4082_464">
<rect width="32" height="32" fill="white" transform="translate(0.461426)"/>
</clipPath>
</defs>
</svg>
