<svg width="116" height="32" viewBox="0 0 116 32" fill="none" xmlns="http://www.w3.org/2000/svg">
<g clip-path="url(#clip0_3843_521)">
<path d="M16.4614 2.66675C9.10142 2.66675 3.12808 8.64008 3.12808 16.0001C3.12808 23.3601 9.10142 29.3334 16.4614 29.3334C23.8214 29.3334 29.7947 23.3601 29.7947 16.0001C29.7947 8.64008 23.8214 2.66675 16.4614 2.66675ZM9.88808 24.3734C10.4614 23.1734 13.9547 22.0001 16.4614 22.0001C18.9681 22.0001 22.4747 23.1734 23.0347 24.3734C21.2214 25.8134 18.9414 26.6667 16.4614 26.6667C13.9814 26.6667 11.7014 25.8134 9.88808 24.3734ZM24.9414 22.4401C23.0348 20.1201 18.4081 19.3334 16.4614 19.3334C14.5147 19.3334 9.88808 20.1201 7.98142 22.4401C6.62142 20.6534 5.79475 18.4267 5.79475 16.0001C5.79475 10.1201 10.5814 5.33341 16.4614 5.33341C22.3414 5.33341 27.1281 10.1201 27.1281 16.0001C27.1281 18.4267 26.3014 20.6534 24.9414 22.4401V22.4401ZM16.4614 8.00008C13.8747 8.00008 11.7947 10.0801 11.7947 12.6667C11.7947 15.2534 13.8747 17.3334 16.4614 17.3334C19.0481 17.3334 21.1281 15.2534 21.1281 12.6667C21.1281 10.0801 19.0481 8.00008 16.4614 8.00008ZM16.4614 14.6667C15.3547 14.6667 14.4614 13.7734 14.4614 12.6667C14.4614 11.5601 15.3547 10.6667 16.4614 10.6667C17.5681 10.6667 18.4614 11.5601 18.4614 12.6667C18.4614 13.7734 17.5681 14.6667 16.4614 14.6667Z" fill="#32323B"/>
</g>
<path d="M53.1414 17.86C53.1414 18.9867 52.9548 19.95 52.5814 20.75C52.2081 21.5433 51.6214 22.15 50.8214 22.57C50.0281 22.99 48.9914 23.2 47.7114 23.2C46.4181 23.2 45.3714 22.9867 44.5714 22.56C43.7781 22.1333 43.1981 21.51 42.8314 20.69C42.4714 19.87 42.2914 18.87 42.2914 17.69V8.54H44.5014V17.96C44.5014 19.1067 44.7814 19.96 45.3414 20.52C45.9081 21.0733 46.6981 21.35 47.7114 21.35C48.3848 21.35 48.9648 21.23 49.4514 20.99C49.9448 20.7433 50.3214 20.37 50.5814 19.87C50.8414 19.3633 50.9714 18.7267 50.9714 17.96V8.54H53.1414V17.86ZM59.4599 23.2C58.7399 23.2 58.0632 23.0867 57.4299 22.86C56.8032 22.6333 56.2765 22.2767 55.8499 21.79C55.4299 21.3033 55.1665 20.68 55.0599 19.92H56.9699C57.0565 20.3133 57.2199 20.64 57.4599 20.9C57.7065 21.1533 57.9999 21.3433 58.3399 21.47C58.6865 21.59 59.0565 21.65 59.4499 21.65C60.1032 21.65 60.6299 21.5333 61.0299 21.3C61.4365 21.06 61.6399 20.6933 61.6399 20.2C61.6399 19.8467 61.5299 19.5633 61.3099 19.35C61.0965 19.1367 60.7565 18.98 60.2899 18.88L58.2299 18.39C57.3765 18.19 56.6932 17.8733 56.1799 17.44C55.6665 17 55.4065 16.3867 55.3999 15.6C55.3999 14.9933 55.5499 14.4533 55.8499 13.98C56.1565 13.5067 56.6099 13.1367 57.2099 12.87C57.8099 12.5967 58.5565 12.46 59.4499 12.46C60.6165 12.46 61.5532 12.72 62.2599 13.24C62.9665 13.76 63.3332 14.5133 63.3599 15.5H61.5099C61.4432 15.0267 61.2265 14.6567 60.8599 14.39C60.4999 14.1167 60.0232 13.98 59.4299 13.98C58.8165 13.98 58.3132 14.1033 57.9199 14.35C57.5265 14.59 57.3299 14.96 57.3299 15.46C57.3299 15.8 57.4732 16.07 57.7599 16.27C58.0465 16.4633 58.4765 16.6233 59.0499 16.75L61.0099 17.24C61.5165 17.3733 61.9332 17.55 62.2599 17.77C62.5865 17.9833 62.8432 18.22 63.0299 18.48C63.2165 18.74 63.3465 19.01 63.4199 19.29C63.4999 19.57 63.5399 19.8333 63.5399 20.08C63.5399 20.7333 63.3732 21.2933 63.0399 21.76C62.7132 22.22 62.2432 22.5767 61.6299 22.83C61.0232 23.0767 60.2999 23.2 59.4599 23.2ZM69.3807 23.2C68.8607 23.1933 68.364 23.1167 67.8907 22.97C67.4173 22.8233 66.994 22.6033 66.6207 22.31C66.254 22.0167 65.9607 21.6533 65.7407 21.22C65.5273 20.7867 65.4207 20.2833 65.4207 19.71V12.66H67.5707V19.48C67.5707 20.1 67.764 20.6033 68.1507 20.99C68.5373 21.3767 69.1207 21.57 69.9007 21.57C70.6073 21.57 71.174 21.3867 71.6007 21.02C72.0273 20.6467 72.2407 20.1033 72.2407 19.39V12.66H74.3707V23H72.7107L72.4707 21C72.3507 21.54 72.134 21.9733 71.8207 22.3C71.514 22.62 71.1473 22.8533 70.7207 23C70.3007 23.14 69.854 23.2067 69.3807 23.2ZM79.6415 23.2C78.9748 23.2 78.3815 23.08 77.8615 22.84C77.3481 22.6 76.9448 22.2533 76.6515 21.8C76.3581 21.3467 76.2115 20.8 76.2115 20.16C76.2115 19.0133 76.6181 18.1567 77.4315 17.59C78.2448 17.0233 79.5415 16.7233 81.3215 16.69L83.0215 16.64V15.89C83.0215 15.2967 82.8448 14.83 82.4915 14.49C82.1381 14.15 81.5948 13.9833 80.8615 13.99C80.3081 13.99 79.8148 14.1167 79.3815 14.37C78.9548 14.6233 78.6748 15.04 78.5415 15.62H76.6815C76.7215 14.9333 76.9181 14.3567 77.2715 13.89C77.6315 13.4167 78.1248 13.06 78.7515 12.82C79.3781 12.58 80.1148 12.46 80.9615 12.46C81.9015 12.46 82.6748 12.59 83.2815 12.85C83.8881 13.1033 84.3381 13.4767 84.6315 13.97C84.9315 14.4633 85.0815 15.0633 85.0815 15.77V23H83.2715L83.1015 21.1C82.7148 21.8933 82.2248 22.4433 81.6315 22.75C81.0448 23.05 80.3815 23.2 79.6415 23.2ZM80.3115 21.71C80.6381 21.71 80.9615 21.6533 81.2815 21.54C81.6015 21.42 81.8915 21.26 82.1515 21.06C82.4115 20.8533 82.6181 20.6233 82.7715 20.37C82.9315 20.1167 83.0148 19.8567 83.0215 19.59V17.88L81.6215 17.91C80.9081 17.9167 80.3015 17.99 79.8015 18.13C79.3081 18.27 78.9281 18.4867 78.6615 18.78C78.4015 19.0733 78.2715 19.4633 78.2715 19.95C78.2715 20.5033 78.4648 20.9367 78.8515 21.25C79.2381 21.5567 79.7248 21.71 80.3115 21.71ZM82.2015 8.54H84.5515L81.7515 11.45H80.1415L82.2015 8.54ZM87.7069 23V12.66H89.7569V14.78C89.9303 14.2733 90.1703 13.85 90.4769 13.51C90.7903 13.1633 91.1536 12.9033 91.5669 12.73C91.9803 12.55 92.4169 12.46 92.8769 12.46C93.0169 12.46 93.1503 12.47 93.2769 12.49C93.4036 12.5033 93.5036 12.53 93.5769 12.57V14.63C93.4903 14.59 93.3769 14.5633 93.2369 14.55C93.1036 14.5367 92.9869 14.5267 92.8869 14.52C92.4336 14.4867 92.0203 14.51 91.6469 14.59C91.2736 14.67 90.9503 14.8033 90.6769 14.99C90.4103 15.1767 90.2036 15.42 90.0569 15.72C89.9169 16.02 89.8469 16.3733 89.8469 16.78V23H87.7069ZM97.4363 12.66V23H95.3763V12.66H97.4363ZM97.4763 8.55V10.66H95.3263V8.55H97.4763ZM104.326 23.2C103.36 23.2 102.513 22.9933 101.786 22.58C101.066 22.16 100.506 21.5533 100.106 20.76C99.7129 19.9667 99.5162 19.0067 99.5162 17.88C99.5162 16.7933 99.7029 15.8433 100.076 15.03C100.456 14.2167 101.006 13.5867 101.726 13.14C102.446 12.6867 103.316 12.46 104.336 12.46C105.31 12.46 106.153 12.6733 106.866 13.1C107.58 13.52 108.133 14.1367 108.526 14.95C108.92 15.7567 109.116 16.7333 109.116 17.88C109.116 18.9267 108.93 19.85 108.556 20.65C108.19 21.45 107.65 22.0767 106.936 22.53C106.23 22.9767 105.36 23.2 104.326 23.2ZM104.336 21.55C104.923 21.55 105.413 21.3967 105.806 21.09C106.206 20.7767 106.506 20.34 106.706 19.78C106.906 19.2133 107.006 18.56 107.006 17.82C107.006 17.1333 106.916 16.51 106.736 15.95C106.563 15.3833 106.28 14.9333 105.886 14.6C105.493 14.2667 104.976 14.1 104.336 14.1C103.736 14.1 103.236 14.2533 102.836 14.56C102.436 14.86 102.133 15.29 101.926 15.85C101.726 16.4033 101.626 17.06 101.626 17.82C101.626 18.4933 101.716 19.1133 101.896 19.68C102.076 20.2467 102.366 20.7 102.766 21.04C103.166 21.38 103.69 21.55 104.336 21.55Z" fill="#383842"/>
<defs>
<clipPath id="clip0_3843_521">
<rect width="32" height="32" fill="white" transform="translate(0.461426)"/>
</clipPath>
</defs>
</svg>
